<svg width="1065" height="1109" viewBox="0 0 1065 1109" fill="none" xmlns="http://www.w3.org/2000/svg">
<mask id="mask0" mask-type="alpha" maskUnits="userSpaceOnUse" x="0" y="0" width="1065" height="1065">
<circle r="525" transform="matrix(-0.999904 -0.0138419 -0.0138419 0.999904 532.217 532.217)" fill="#C4C4C4"/>
</mask>
<g mask="url(#mask0)">
<path d="M1150.92 -235.901C1331.8 -284.37 1489.98 -137.405 1546.46 -57.8642L872.757 767.695L-272.925 286.078L262.667 -240.541C309.146 -202.535 430.674 -126.509 544.962 -126.459C687.821 -126.398 924.826 -175.314 1150.92 -235.901Z" fill="#7F2CF3"/>
<path d="M697.952 362.213C1002.55 385.613 1180.78 534.431 1221.94 622.883L224.951 1153.56L-814.624 472.516L-192.553 51.5469C-153.723 97.339 -64.0082 78.6133 48.3825 99.3498C188.871 125.27 278.704 330.007 697.952 362.213Z" fill="#943CFF"/>
<path d="M1221.33 496.806C1395.67 428.446 1569.27 556.833 1634.28 629.571L1019.64 1528.85L-172.646 1178.15L-126.185 542.294C-75.7544 574.874 148.189 972.003 611.597 657.135C838.504 502.961 1003.41 582.256 1221.33 496.806Z" fill="#DD45D3"/>
<path d="M581.668 967.888C1008.36 993.297 920.727 1066.38 977.208 1145.92L220.42 1652.7L-925.261 1171.08L-389.669 644.459C-343.191 682.466 -221.663 758.491 -107.375 758.541C35.4844 758.603 132.474 941.139 581.668 967.888Z" fill="#FF9247"/>
<ellipse cx="792.125" cy="701.094" rx="148.349" ry="91.4141" transform="rotate(-9.25973 792.125 701.094)" fill="#F7883C"/>
</g>
<rect x="139" y="900" width="785" height="91" rx="30" fill="black"/>
<rect width="156.712" height="33.3154" rx="16.6577" transform="matrix(-3.30902e-08 1 1 5.77418e-08 781 900)" fill="black"/>
<path d="M266.245 668.422C271.261 658.082 281.744 651.517 293.236 651.517L428.474 651.517C438.937 651.517 448.643 656.968 454.089 665.901L536.191 800.574C548.378 820.565 533.989 846.19 510.576 846.19H227.899C205.754 846.19 191.241 823.019 200.908 803.095L266.245 668.422Z" fill="black"/>
<rect x="271.961" y="678.32" width="185.165" height="249.299" fill="black"/>
<rect x="1.31992" y="3.29097" width="68.4122" height="228.977" rx="27.5" transform="matrix(0.918362 0.395742 -0.390393 0.920648 436.775 862.214)" fill="black" stroke="black" stroke-width="5"/>
<rect x="3.03642" y="1.79772" width="73.3304" height="229.151" rx="27.5" transform="matrix(0.968222 -0.250094 0.246345 0.969182 219.421 882.88)" fill="black" stroke="black" stroke-width="5"/>
<ellipse cx="362.679" cy="603.154" rx="69.5922" ry="70.1545" fill="black"/>
<path d="M240.905 730.289C239.348 718.32 248.668 707.71 260.738 707.71H470.752C482.977 707.71 492.341 718.58 490.531 730.671L471.483 857.914C470.017 867.707 461.606 874.953 451.703 874.953H277.284C267.235 874.953 258.747 867.497 257.451 857.532L240.905 730.289Z" fill="white"/>
<path fill-rule="evenodd" clip-rule="evenodd" d="M365.79 821.134C381.917 821.134 394.99 807.956 394.99 791.699C394.99 775.442 381.917 762.263 365.79 762.263C358.14 762.263 351.177 765.229 345.971 770.082C351.476 773.217 355.172 779.028 355.172 785.678C355.172 794.837 348.159 802.405 339.067 803.582C343.598 813.92 353.858 821.134 365.79 821.134Z" fill="black"/>
</svg>
